HIERARCHY
ROOT hip
{
  OFFSET 0 0 0
  CHANNELS 6 Xposition Yposition Zposition Zrotation Yrotation Xrotation
  JOINT abdomen
  {
    OFFSET 0 20.6881 -0.73152
    CHANNELS 3 Zrotation Xrotation Yrotation
    JOINT chest
    {
      OFFSET 0 11.7043 -0.48768
      CHANNELS 3 Zrotation Xrotation Yrotation
      JOINT neck
      {
        OFFSET 0 22.1894 -2.19456
        CHANNELS 3 Zrotation Xrotation Yrotation
        JOINT head
        {
          OFFSET -0.24384 7.07133 1.2192
          CHANNELS 3 Zrotation Xrotation Yrotation
          JOINT leftEye
          {
            OFFSET 4.14528 8.04674 8.04672
            CHANNELS 3 Zrotation Xrotation Yrotation
            End Site
            {
              OFFSET 1 0 0
            }
          }
          JOINT rightEye
          {
            OFFSET -3.6576 8.04674 8.04672
            CHANNELS 3 Zrotation Xrotation Yrotation
            End Site
            {
              OFFSET 1 0 0
            }
          }
        }
      }
      JOINT rCollar
      {
        OFFSET -2.68224 19.2634 -4.8768
        CHANNELS 3 Zrotation Xrotation Yrotation
        JOINT rShldr
        {
          OFFSET -8.77824 -1.95073 1.46304
          CHANNELS 3 Zrotation Xrotation Yrotation
          JOINT rForeArm
          {
            OFFSET -28.1742 -1.7115 0.48768
            CHANNELS 3 Zrotation Xrotation Yrotation
            JOINT rHand
            {
              OFFSET -22.5879 0.773209 7.07136
              CHANNELS 3 Zrotation Xrotation Yrotation
              JOINT rThumb1
              {
                OFFSET -1.2192 -0.487915 3.41376
                CHANNELS 3 Zrotation Xrotation Yrotation
                JOINT rThumb2
                {
                  OFFSET -3.37035 -0.52449 3.41376
                  CHANNELS 3 Zrotation Xrotation Yrotation
                  End Site
                  {
                    OFFSET -1.78271 -1.18214 1.43049
                  }
                }
              }
              JOINT rIndex1
              {
                OFFSET -7.75947 0.938293 5.60832
                CHANNELS 3 Zrotation Xrotation Yrotation
                JOINT rIndex2
                {
                  OFFSET -2.54057 -0.884171 1.56538
                  CHANNELS 3 Zrotation Xrotation Yrotation
                  End Site
                  {
                    OFFSET -1.62519 -0.234802 1.16502
                  }
                }
              }
              JOINT rMid1
              {
                OFFSET -8.24714 1.18213 3.41376
                CHANNELS 3 Zrotation Xrotation Yrotation
                JOINT rMid2
                {
                  OFFSET -3.10165 -0.590103 1.0647
                  CHANNELS 3 Zrotation Xrotation Yrotation
                  End Site
                  {
                    OFFSET -2.48547 -0.328903 0.83742
                  }
                }
              }
              JOINT rRing1
              {
                OFFSET -8.82822 0.546677 1.51678
                CHANNELS 3 Zrotation Xrotation Yrotation
                JOINT rRing2
                {
                  OFFSET -2.60934 -0.819778 -0.0198488
                  CHANNELS 3 Zrotation Xrotation Yrotation
                  End Site
                  {
                    OFFSET -2.33842 -0.294052 0.168128
                  }
                }
              }
              JOINT rPinky1
              {
                OFFSET -8.27202 -0.0477905 -0.4584
                CHANNELS 3 Zrotation Xrotation Yrotation
                JOINT rPinky2
                {
                  OFFSET -1.82734 -0.647385 -0.700984
                  CHANNELS 3 Zrotation Xrotation Yrotation
                  End Site
                  {
                    OFFSET -1.69225 -0.51767 -0.607171
                  }
                }
              }
            }
          }
        }
      }
      JOINT lCollar
      {
        OFFSET 2.68224 19.2634 -4.8768
        CHANNELS 3 Zrotation Xrotation Yrotation
        JOINT lShldr
        {
          OFFSET 8.77824 -1.95073 1.46304
          CHANNELS 3 Zrotation Xrotation Yrotation
          JOINT lForeArm
          {
            OFFSET 28.1742 -1.7115 0.48768
            CHANNELS 3 Zrotation Xrotation Yrotation
            JOINT lHand
            {
              OFFSET 22.5879 0.773209 7.07136
              CHANNELS 3 Zrotation Xrotation Yrotation
              JOINT lThumb1
              {
                OFFSET 1.2192 -0.487915 3.41376
                CHANNELS 3 Zrotation Xrotation Yrotation
                JOINT lThumb2
                {
                  OFFSET 3.37035 -0.52449 3.41376
                  CHANNELS 3 Zrotation Xrotation Yrotation
                  End Site
                  {
                    OFFSET 1.78271 -1.18214 1.43049
                  }
                }
              }
              JOINT lIndex1
              {
                OFFSET 7.75947 0.938293 5.60832
                CHANNELS 3 Zrotation Xrotation Yrotation
                JOINT lIndex2
                {
                  OFFSET 2.54057 -0.884171 1.56538
                  CHANNELS 3 Zrotation Xrotation Yrotation
                  End Site
                  {
                    OFFSET 1.62519 -0.234802 1.16502
                  }
                }
              }
              JOINT lMid1
              {
                OFFSET 8.24714 1.18213 3.41376
                CHANNELS 3 Zrotation Xrotation Yrotation
                JOINT lMid2
                {
                  OFFSET 3.10165 -0.590103 1.0647
                  CHANNELS 3 Zrotation Xrotation Yrotation
                  End Site
                  {
                    OFFSET 2.48547 -0.328903 0.83742
                  }
                }
              }
              JOINT lRing1
              {
                OFFSET 8.82822 0.546677 1.51678
                CHANNELS 3 Zrotation Xrotation Yrotation
                JOINT lRing2
                {
                  OFFSET 2.60934 -0.819778 -0.0198488
                  CHANNELS 3 Zrotation Xrotation Yrotation
                  End Site
                  {
                    OFFSET 2.33842 -0.294052 0.168128
                  }
                }
              }
              JOINT lPinky1
              {
                OFFSET 8.27202 -0.0477905 -0.4584
                CHANNELS 3 Zrotation Xrotation Yrotation
                JOINT lPinky2
                {
                  OFFSET 1.82734 -0.647385 -0.700984
                  CHANNELS 3 Zrotation Xrotation Yrotation
                  End Site
                  {
                    OFFSET 1.69225 -0.51767 -0.607171
                  }
                }
              }
            }
          }
        }
      }
    }
  }
  JOINT rButtock
  {
    OFFSET -8.77824 4.35084 1.2192
    CHANNELS 3 Zrotation Xrotation Yrotation
    JOINT rThigh
    {
      OFFSET 0 -1.70687 -2.19456
      CHANNELS 3 Zrotation Xrotation Yrotation
      JOINT rShin
      {
        OFFSET 0 -36.8199 0.73152
        CHANNELS 3 Zrotation Xrotation Yrotation
        JOINT rFoot
        {
          OFFSET 0.73152 -45.1104 -5.12064
          CHANNELS 3 Zrotation Xrotation Yrotation
          End Site
          {
            OFFSET -1.1221 -3.69964 12.103
          }
        }
      }
    }
  }
  JOINT lButtock
  {
    OFFSET 8.77824 4.35084 1.2192
    CHANNELS 3 Zrotation Xrotation Yrotation
    JOINT lThigh
    {
      OFFSET 0 -1.70687 -2.19456
      CHANNELS 3 Zrotation Xrotation Yrotation
      JOINT lShin
      {
        OFFSET 0 -36.8199 0.73152
        CHANNELS 3 Zrotation Xrotation Yrotation
        JOINT lFoot
        {
          OFFSET -0.73152 -45.1104 -5.12064
          CHANNELS 3 Zrotation Xrotation Yrotation
          End Site
          {
            OFFSET 1.1221 -3.69964 12.103
          }
        }
      }
    }
  }
}
MOTION
Frames:	4
Frame Time:	0.03333
3.0878 77.7594 -4.2687 -179.405961 36.415646 -175.355894 -5.279183 0.499044 156.398841 -2.693082 0.631764 -142.847589 -13.355047 24.582356 -97.834734 31.579292 15.724503 74.717014 -0.001608 0.0 -0.000952 -0.001357 -0.0 0.003246 -0.424828 2.474215 0.559381 -121.855247 -20.447246 134.972802 -34.765552 45.548953 -100.617056 152.469468 -49.596425 132.346192 10.489123 -10.476384 -0.660433 18.317911 -43.681522 -22.568075 4.593316 -7.802467 -2.372388 -119.925884 33.846706 94.190668 -162.148782 -11.296814 143.887211 24.927934 -53.929232 3.728838 -145.03784 -4.184935 -177.809358 -151.423719 -28.451627 -174.636668 13.172106 45.074298 10.879132 2.559992 2.441324 0.386427 158.212131 -26.764912 -166.318907 -138.739567 -49.253988 -177.477922 -179.172266 47.497363 -37.101997 -171.60889 -16.414577 -143.701847 175.467317 -13.110417 -89.788325 100.818438 14.875917 -41.952483 140.82049 1.28809 -116.262919 -1.093762 15.503839 6.172121 152.244707 16.12739 -138.100145 168.510245 -20.846461 -143.926753 -0.002236 2.451187 -0.770259 149.800891 40.344918 -164.406326 -9.467164 30.551742 -8.238778 152.926345 29.301849 147.045567 179.982248 75.749642 0.015197 -175.578027 42.502829 1.486857 19.641419 52.809152 37.879927 -53.408023 31.591587 -31.81554 -4.7e-05 0.000908 0.000124 -9.2472 -32.700743 -22.298927 -11.911201 58.803628 103.294854 -102.000699 53.713671 -0.944096
3.1535 77.72590000000001 -4.3773 -179.488289 36.42027 -175.467356 -2.634593 0.869434 -136.672788 1.791313 1.257566 150.413603 -12.985669 16.913181 -53.520221 27.001917 -5.272094 35.139884 -0.001037 -0.0 0.004324 -0.001285 -0.0 0.000126 -152.979915 10.346962 158.583191 133.381971 19.350945 -163.9859 -55.015744 59.675295 150.510345 -0.481218 3.158072 0.182459 -175.505888 -13.147706 89.784206 -77.336991 7.303347 24.607483 -148.048373 -11.087431 119.905107 -164.851827 -21.5408 119.366562 -171.014211 -38.78112 145.278445 -16.597396 40.067478 13.371163 -0.041134 5.451789 1.714844 -1.444257 54.99631 13.444632 -141.236743 0.666151 -138.25972 -170.58755 70.050127 -143.386373 158.805814 -35.226894 -167.873596 -142.694555 -8.781518 177.884457 178.36901 10.644389 -34.076797 -171.067254 -18.189878 -143.469498 45.641691 32.276242 -20.239028 127.185725 -25.563482 -92.995211 -44.862371 -63.60926 -4.023046 170.397786 -35.474526 -111.084923 -4.127697 -12.680296 1.950266 170.081571 -25.542296 -144.308461 145.114466 -0.326706 179.026613 150.120933 -35.909977 172.815012 138.119206 -6.972449 135.354321 -176.028333 79.109347 133.109371 0.00027 -0.00135 0.0 3.808313 -32.997375 10.65461 28.759366 61.946839 139.645662 156.344531 6.639947 171.776035 -179.996936 75.749277 -0.002193 170.327732 41.958741 -49.245419 -61.262209 30.059905 -91.046073 110.052377 9.781188 160.92364
3.1997 77.7017 -4.4809 -179.465704 36.455849 -175.520878 -5.784306 4.321735 40.817037 -1.676201 -6.089422 -26.852287 -13.335455 17.51567 -57.388306 27.770728 -3.313257 38.481672 -0.004712 0.0 -0.002829 0.001785 0.0 0.004672 0.314585 -1.928385 -0.422936 163.486531 -56.149385 88.230096 -26.553784 -6.424968 -133.624403 146.647406 -54.676289 127.633242 -159.157722 3.080252 88.700556 117.365435 -54.815679 80.269128 -15.713943 20.766194 10.689582 -138.079327 21.163442 103.273981 15.213577 -45.628335 -2.664764 -4.341529 19.551004 3.96607 -0.025461 -1.922097 -0.604265 8.832894 17.723869 2.436944 -168.508954 80.603046 -147.781119 12.84306 35.677059 6.153043 102.414412 66.207142 -105.760006 -120.671159 -32.701183 -85.095817 14.144173 30.090317 -121.094039 2.908557 6.248788 0.502247 -145.839256 -41.568448 -75.962088 135.770547 22.807685 -81.317934 142.326443 -1.152615 -117.1136 13.290929 35.364736 -2.98205 -6.371091 -19.89393 2.676652 -176.805678 -54.331982 -139.511067 -0.006385 0.835787 -0.261971 -11.175852 -48.413949 6.119654 -2.305188 6.352474 -2.107708 145.471289 5.378389 142.084773 -179.996746 75.749751 -0.003622 -175.448302 40.452251 -178.834209 -25.314382 -57.924718 -112.875083 -171.839187 9.453966 96.957587 -179.982453 75.748036 -0.014758 169.234217 40.174784 -176.278714 15.467009 -62.032696 81.193068 -16.482735 59.990477 127.78085
3.2476 77.6682 -4.592099999999999 -179.478865 36.465062 -175.578902 -1.838139 2.915089 -77.191618 4.054739 -2.135466 91.433758 7.133255 22.749033 109.766464 -26.323842 18.148942 -127.557653 -0.000886 -0.0 0.000251 -0.000886 -0.0 0.000251 -55.671049 66.755636 58.498198 85.828299 -31.115139 106.885378 -48.923936 18.468245 126.41433 7.811569 -20.701216 2.768643 2.675872 -2.65628 -0.349667 12.135024 -19.989302 -11.445989 -158.461469 -30.265163 122.608693 -19.469517 43.643067 9.90721 -152.466457 15.626667 138.257189 -163.773134 -6.479406 143.151643 -145.122708 1.11609 -179.477291 -69.777062 -77.989199 -91.192323 -60.045855 -51.228986 -58.663759 -12.426452 -29.842295 -14.903114 1.865866 9.899759 -2.375418 111.553325 5.642342 175.442212 -45.255799 -7.072649 156.498707 171.687781 33.183014 -142.180397 173.666005 -11.336304 -89.896788 62.418726 -2.604635 -15.433192 2.769763 4.353929 -1.634228 149.433849 4.373743 -108.510397 -39.983275 -73.720231 -13.876779 171.369893 -28.577247 -144.053643 145.123585 1.390383 179.563149 147.36774 -45.510475 169.682919 160.072431 66.256255 151.106615 139.570752 -10.751134 135.189699 179.993702 75.749588 0.00404 -175.956799 40.597497 161.843509 8.112427 -59.689252 -86.434375 -22.557993 -15.13731 -80.910406 -0.002011 5.4e-05 -0.000706 -8.559708 -32.991225 -66.278495 -48.600203 25.282117 75.430213 -117.874252 -23.289844 -11.392116
